<?xml version="1.0" encoding="UTF-8" standalone="no"?>
<!DOCTYPE svg PUBLIC "-//W3C//DTD SVG 1.1//EN" "http://www.w3.org/Graphics/SVG/1.1/DTD/svg11.dtd">
<svg width="100%" height="100%" viewBox="0 0 3000 3000" version="1.1" xmlns="http://www.w3.org/2000/svg" xmlns:xlink="http://www.w3.org/1999/xlink" xml:space="preserve" xmlns:serif="http://www.serif.com/" style="fill-rule:evenodd;clip-rule:evenodd;stroke-linejoin:round;stroke-miterlimit:2;">
    <g transform="matrix(1,0,0,1,50,0)">
        <g transform="matrix(0.9,0,0,1,55,500)">
            <rect x="1050" y="1900" width="1000" height="50"/>
        </g>
        <g transform="matrix(0.8,0,0,1,210,450)">
            <rect x="1050" y="1900" width="1000" height="50"/>
        </g>
        <g transform="matrix(0.7,0,0,1,365,400)">
            <rect x="1050" y="1900" width="1000" height="50"/>
        </g>
    </g>
    <g transform="matrix(1,0,0,1,-50,0)">
        <g transform="matrix(0.75,0,0,1,1162.5,0)">
            <rect x="1050" y="1900" width="1000" height="50"/>
        </g>
        <g transform="matrix(0.75,0,0,1,-387.5,0)">
            <rect x="1050" y="1900" width="1000" height="50"/>
        </g>
        <g transform="matrix(0.55,0,0,1,1472.5,50)">
            <rect x="1050" y="1900" width="1000" height="50"/>
        </g>
        <g transform="matrix(0.55,0,0,1,-77.5,50)">
            <rect x="1050" y="1900" width="1000" height="50"/>
        </g>
        <g transform="matrix(0.35,0,0,1,1782.5,100)">
            <rect x="1050" y="1900" width="1000" height="50"/>
        </g>
        <g transform="matrix(0.35,0,0,1,232.5,100)">
            <rect x="1050" y="1900" width="1000" height="50"/>
        </g>
        <g transform="matrix(0.15,0,0,1,2092.5,150)">
            <rect x="1050" y="1900" width="1000" height="50"/>
        </g>
        <g transform="matrix(0.15,0,0,1,542.5,150)">
            <rect x="1050" y="1900" width="1000" height="50"/>
        </g>
    </g>
    <g transform="matrix(1,0,0,1.2,100,-460)">
        <rect x="1350" y="800" width="100" height="1500"/>
    </g>
    <g transform="matrix(6.12323e-17,-1,1.13333,6.93967e-17,-256.667,2100)">
        <rect x="1350" y="800" width="100" height="1500"/>
    </g>
    <g transform="matrix(1,0,0,1,50,50)">
        <rect x="2200" y="700" width="50" height="150"/>
    </g>
    <g transform="matrix(1,0,0,1,-1500,50)">
        <rect x="2200" y="700" width="50" height="150"/>
    </g>
    <g transform="matrix(1,0,0,1,100,150)">
        <rect x="2200" y="700" width="50" height="150"/>
    </g>
    <g transform="matrix(1,0,0,1,-1450,150)">
        <rect x="2200" y="700" width="50" height="150"/>
    </g>
    <g transform="matrix(-1,0,0,1,4450,150)">
        <rect x="2200" y="700" width="50" height="150"/>
    </g>
    <g transform="matrix(-1,0,0,1,2900,150)">
        <rect x="2200" y="700" width="50" height="150"/>
    </g>
    <g transform="matrix(1,0,0,1.33333,150,16.6667)">
        <rect x="2200" y="700" width="50" height="150"/>
    </g>
    <g transform="matrix(1,0,0,1.33333,-1400,16.6667)">
        <rect x="2200" y="700" width="50" height="150"/>
    </g>
    <g transform="matrix(-1,0,0,1.33333,4400,16.6667)">
        <rect x="2200" y="700" width="50" height="150"/>
    </g>
    <g transform="matrix(-1,0,0,1.33333,2850,16.6667)">
        <rect x="2200" y="700" width="50" height="150"/>
    </g>
    <g transform="matrix(1,0,0,1.33333,200,166.667)">
        <rect x="2200" y="700" width="50" height="150"/>
    </g>
    <g transform="matrix(1,0,0,1.33333,-1350,166.667)">
        <rect x="2200" y="700" width="50" height="150"/>
    </g>
    <g transform="matrix(-1,0,0,1.33333,4350,166.667)">
        <rect x="2200" y="700" width="50" height="150"/>
    </g>
    <g transform="matrix(-1,0,0,1.33333,2800,166.667)">
        <rect x="2200" y="700" width="50" height="150"/>
    </g>
    <g transform="matrix(1,0,0,1.33333,250,316.667)">
        <rect x="2200" y="700" width="50" height="150"/>
    </g>
    <g transform="matrix(1,0,0,1.33333,-1300,316.667)">
        <rect x="2200" y="700" width="50" height="150"/>
    </g>
    <g transform="matrix(-1,0,0,1.33333,4300,316.667)">
        <rect x="2200" y="700" width="50" height="150"/>
    </g>
    <g transform="matrix(-1,0,0,1.33333,2750,316.667)">
        <rect x="2200" y="700" width="50" height="150"/>
    </g>
    <g transform="matrix(1,0,0,1.33333,300,466.667)">
        <rect x="2200" y="700" width="50" height="150"/>
    </g>
    <g transform="matrix(1,0,0,1.33333,-1250,466.667)">
        <rect x="2200" y="700" width="50" height="150"/>
    </g>
    <g transform="matrix(1,0,0,1.33333,350,616.667)">
        <rect x="2200" y="700" width="50" height="150"/>
    </g>
    <g transform="matrix(1,0,0,1.33333,-1200,616.667)">
        <rect x="2200" y="700" width="50" height="150"/>
    </g>
    <g transform="matrix(1,0,0,1.33333,400,766.667)">
        <rect x="2200" y="700" width="50" height="150"/>
    </g>
    <g transform="matrix(1,0,0,1.33333,-1150,766.667)">
        <rect x="2200" y="700" width="50" height="150"/>
    </g>
    <g transform="matrix(-1,0,0,1.33333,4250,466.667)">
        <rect x="2200" y="700" width="50" height="150"/>
    </g>
    <g transform="matrix(-1,0,0,1.33333,2700,466.667)">
        <rect x="2200" y="700" width="50" height="150"/>
    </g>
    <g transform="matrix(-1,0,0,1.33333,4200,616.667)">
        <rect x="2200" y="700" width="50" height="150"/>
    </g>
    <g transform="matrix(-1,0,0,1.33333,2650,616.667)">
        <rect x="2200" y="700" width="50" height="150"/>
    </g>
    <g transform="matrix(-1,0,0,1.33333,4150,766.667)">
        <rect x="2200" y="700" width="50" height="150"/>
    </g>
    <g transform="matrix(-1,0,0,1.33333,2600,766.667)">
        <rect x="2200" y="700" width="50" height="150"/>
    </g>
    <rect x="1400" y="600" width="200" height="200"/>
</svg>
